<?xml version="1.0" encoding="UTF-8"?>
<svg width="100px" height="80px" viewBox="0 0 100 80" version="1.1" xmlns="http://www.w3.org/2000/svg" xmlns:xlink="http://www.w3.org/1999/xlink">
    <!-- Generator: Sketch 41.2 (35397) - http://www.bohemiancoding.com/sketch -->
    <title>Icon - We support 3 outines</title>
    <desc>Created with Sketch.</desc>
    <defs></defs>
    <g id="Symbols" stroke="none" stroke-width="1" fill="none" fill-rule="evenodd">
        <g id="Icon---We-support-3-outines" fill="#444444">
            <g id="new" transform="translate(10.000000, 0.000000)">
                <path d="M40,76 C59.882251,76 76,59.882251 76,40 C76,20.117749 59.882251,4 40,4 C20.117749,4 4,20.117749 4,40 C4,59.882251 20.117749,76 40,76 Z M40,80 C17.90861,80 0,62.09139 0,40 C0,17.90861 17.90861,0 40,0 C62.09139,0 80,17.90861 80,40 C80,62.09139 62.09139,80 40,80 Z" id="Oval"></path>
                <path d="M40,56 C48.836556,56 56,48.836556 56,40 C56,31.163444 48.836556,24 40,24 C31.163444,24 24,31.163444 24,40 C24,48.836556 31.163444,56 40,56 Z M40,60 C28.954305,60 20,51.045695 20,40 C20,28.954305 28.954305,20 40,20 C51.045695,20 60,28.954305 60,40 C60,51.045695 51.045695,60 40,60 Z" id="Oval"></path>
                <path d="M43.5062279,4.19466623 C42.3019807,4.071479 41.1207664,4.00082007 40.0228547,4.00000697 C39.9914538,4.00000209 39.9914538,4.00000209 39.9788537,4.0000125 C38.8832368,4.00109856 37.7046279,4.07165476 36.5029443,4.19448414 L36.5072112,20.3095 C37.6782685,20.0987242 38.8476421,19.9819336 40.0040471,19.9819336 C40.0311815,19.9819483 40.0311815,19.9819483 40.058284,19.9820217 C41.2018899,19.9857316 42.358984,20.1031006 43.5184821,20.3120655 L43.5062279,4.19466623 Z M47.5225407,25.6486206 C47.5225407,25.6486206 43.7563664,23.9819336 40.0040471,23.9819336 C36.2517278,23.9819336 32.5086247,25.6486206 32.5086247,25.6486206 L32.5020235,0.717497206 C32.5020235,0.717497206 36.2579204,9.13047415e-13 40.0040471,0 C43.7501738,-1.19015908e-12 47.5035853,0.717497206 47.5035853,0.717497206 L47.5225407,25.6486206 Z" id="Combined-Shape"></path>
                <path d="M36.0171289,75.7842353 C37.2214073,75.9074283 38.4026531,75.9780907 39.5005922,75.9789038 C39.531993,75.9789087 39.531993,75.9789087 39.5445932,75.9788983 C40.6410506,75.9778114 41.8206275,75.9071477 43.0232683,75.7841439 L43.0318267,59.6590727 C41.8765993,59.8552193 40.7251636,59.9661973 39.5896154,59.9713734 C39.549297,59.9715268 39.549297,59.9715268 39.5089111,59.9715576 C38.3334609,59.9701664 37.1683106,59.8366591 36.0044013,59.5963542 L36.0171289,75.7842353 Z M32,54 C32,54 35.7565918,55.9715576 39.5089111,55.9715576 C43.2612305,55.9715576 47.0346069,54.421875 47.0346069,54.421875 L47.0214233,79.2614136 C47.0214233,79.2614136 43.2655265,79.9789108 39.5193998,79.9789108 C35.7732731,79.9789108 32.0198616,79.2614136 32.0198616,79.2614136 L32,54 Z" id="Rectangle-Copy-3"></path>
                <g id="Group-2" transform="translate(40.000000, 40.000000) rotate(-270.000000) translate(-40.000000, -40.000000) translate(32.000000, 0.000000)">
                    <path d="M11.5062279,4.19466992 C10.3019807,4.071479 9.12076637,4.00082007 8.02285465,4.00000697 C7.99145385,4.00000209 7.99145385,4.00000209 7.97885365,4.0000125 C6.88323682,4.00109856 5.70462789,4.07165476 4.50294431,4.19448414 L4.50721119,20.3095 C5.67826848,20.0987242 6.84764209,19.9819336 8.00404709,19.9819336 C8.03118145,19.9819483 8.03118145,19.9819483 8.05828405,19.9820217 C9.20188986,19.9857316 10.358984,20.1031006 11.5184821,20.3120655 L11.5062279,4.19466992 Z M15.5225407,25.6486206 C15.5225407,25.6486206 11.7563664,23.9819336 8.00404709,23.9819336 C4.25172776,23.9819336 0.50862473,25.6486206 0.50862473,25.6486206 L0.502023547,0.717497206 C0.502023547,0.717497206 4.25792041,9.13047415e-13 8.00404709,0 C11.7501738,-1.19015908e-12 15.5035853,0.717497206 15.5035853,0.717497206 L15.5225407,25.6486206 Z" id="Combined-Shape"></path>
                    <path d="M4.01712892,75.7842353 C5.2214073,75.9074283 6.40265314,75.9780907 7.50059224,75.9789038 C7.53199304,75.9789087 7.53199304,75.9789087 7.54459323,75.9788983 C8.6410506,75.9778114 9.82062746,75.9071477 11.0232683,75.7841439 L11.0318267,59.6590727 C9.87659928,59.8552193 8.72516355,59.9661973 7.58961535,59.9713734 C7.54929702,59.9715268 7.54929702,59.9715268 7.50891113,59.9715576 C6.33346094,59.9701664 5.16831058,59.8366591 4.00440132,59.5963542 L4.01712892,75.7842353 Z M3.55271368e-15,54 C3.55271368e-15,54 3.7565918,55.9715576 7.50891113,55.9715576 C11.2612305,55.9715576 15.0346069,54.421875 15.0346069,54.421875 L15.0214233,79.2614136 C15.0214233,79.2614136 11.2655265,79.9789108 7.51939979,79.9789108 C3.77327311,79.9789108 0.0198615839,79.2614136 0.0198615839,79.2614136 L3.55271368e-15,54 Z" id="Rectangle-Copy-3"></path>
                </g>
            </g>
        </g>
    </g>
</svg>