<?xml version="1.0" encoding="UTF-8"?>
<svg width="100px" height="80px" viewBox="0 0 100 80" version="1.1" xmlns="http://www.w3.org/2000/svg" xmlns:xlink="http://www.w3.org/1999/xlink">
    <!-- Generator: Sketch 41.2 (35397) - http://www.bohemiancoding.com/sketch -->
    <title>Icon - We Design</title>
    <desc>Created with Sketch.</desc>
    <defs></defs>
    <g id="Symbols" stroke="none" stroke-width="1" fill="none" fill-rule="evenodd">
        <g id="Icon---We-Design" fill="#444444">
            <g id="1494951993_Streamline-29" transform="translate(19.000000, 0.000000)">
                <g id="Expanded">
                    <g id="Group">
                        <path d="M61.3421053,80 L38.1315789,80 C37.2147632,80 36.4736842,79.2533333 36.4736842,78.3333333 L36.4736842,1.66666667 C36.4736842,0.746666667 37.2147632,0 38.1315789,0 L61.3421053,0 C62.2589211,0 63,0.746666667 63,1.66666667 L63,78.3333333 C63,79.2533333 62.2589211,80 61.3421053,80 Z M39.7894737,76.6666667 L59.6842105,76.6666667 L59.6842105,3.33333333 L39.7894737,3.33333333 L39.7894737,76.6666667 Z" id="Shape"></path>
                        <rect id="Rectangle-path" x="38.1315789" y="13.3333333" width="8.28947368" height="3.33333333"></rect>
                        <rect id="Rectangle-path" x="38.1315789" y="23.3333333" width="8.28947368" height="3.33333333"></rect>
                        <rect id="Rectangle-path" x="38.1315789" y="33.3333333" width="8.28947368" height="3.33333333"></rect>
                        <rect id="Rectangle-path" x="38.1315789" y="43.3333333" width="8.28947368" height="3.33333333"></rect>
                        <rect id="Rectangle-path" x="38.1315789" y="53.3333333" width="8.28947368" height="3.33333333"></rect>
                        <rect id="Rectangle-path" x="38.1315789" y="63.3333333" width="8.28947368" height="3.33333333"></rect>
                        <path d="M14.9210526,76.6666667 L8.28947368,76.6666667 C3.71865789,76.6666667 0,72.9283333 0,68.3333333 L0,20 C0,19.6716667 0.0978157895,19.3483333 0.278526316,19.075 L10.2258947,4.075 C10.8409737,3.14666667 12.3695526,3.14666667 12.9846316,4.075 L22.932,19.075 C23.1127105,19.3483333 23.2105263,19.6716667 23.2105263,20 L23.2105263,68.3333333 C23.2105263,72.9283333 19.4918684,76.6666667 14.9210526,76.6666667 Z M3.31578947,20.505 L3.31578947,68.3333333 C3.31578947,71.09 5.54731579,73.3333333 8.28947368,73.3333333 L14.9210526,73.3333333 C17.6632105,73.3333333 19.8947368,71.09 19.8947368,68.3333333 L19.8947368,20.505 L11.6052632,8.005 L3.31578947,20.505 Z" id="Shape"></path>
                        <path d="M21.5526316,66.6666667 L1.65789474,66.6666667 C0.741078947,66.6666667 0,65.92 0,65 C0,64.08 0.741078947,63.3333333 1.65789474,63.3333333 L21.5526316,63.3333333 C22.4694474,63.3333333 23.2105263,64.08 23.2105263,65 C23.2105263,65.92 22.4694474,66.6666667 21.5526316,66.6666667 Z" id="Shape"></path>
                        <path d="M21.5526316,60 L1.65789474,60 C0.741078947,60 0,59.2533333 0,58.3333333 C0,57.4133333 0.741078947,56.6666667 1.65789474,56.6666667 L21.5526316,56.6666667 C22.4694474,56.6666667 23.2105263,57.4133333 23.2105263,58.3333333 C23.2105263,59.2533333 22.4694474,60 21.5526316,60 Z" id="Shape"></path>
                        <path d="M8.28947368,60 C7.37265789,60 6.63157895,59.2533333 6.63157895,58.3333333 L6.63157895,26.6666667 C6.63157895,25.7466667 7.37265789,25 8.28947368,25 C9.20628947,25 9.94736842,25.7466667 9.94736842,26.6666667 L9.94736842,58.3333333 C9.94736842,59.2533333 9.20628947,60 8.28947368,60 Z" id="Shape"></path>
                        <path d="M14.9210526,60 C14.0042368,60 13.2631579,59.2533333 13.2631579,58.3333333 L13.2631579,26.6666667 C13.2631579,25.7466667 14.0042368,25 14.9210526,25 C15.8378684,25 16.5789474,25.7466667 16.5789474,26.6666667 L16.5789474,58.3333333 C16.5789474,59.2533333 15.8378684,60 14.9210526,60 Z" id="Shape"></path>
                        <rect id="Rectangle-path" x="6.63157895" y="11.6666667" width="9.94736842" height="3.33333333"></rect>
                        <path d="M6.63157895,28.3333333 C2.97426316,28.3333333 0,25.3433333 0,21.6666667 C0,20.7466667 0.741078947,20 1.65789474,20 C2.57471053,20 3.31578947,20.7466667 3.31578947,21.6666667 C3.31578947,23.505 4.80292105,25 6.63157895,25 C8.46023684,25 9.94736842,23.505 9.94736842,21.6666667 C9.94736842,20.7466667 10.6884474,20 11.6052632,20 C12.5220789,20 13.2631579,20.7466667 13.2631579,21.6666667 C13.2631579,25.3433333 10.2888947,28.3333333 6.63157895,28.3333333 Z" id="Shape"></path>
                        <path d="M16.5789474,28.3333333 C12.9216316,28.3333333 9.94736842,25.3433333 9.94736842,21.6666667 C9.94736842,20.7466667 10.6884474,20 11.6052632,20 C12.5220789,20 13.2631579,20.7466667 13.2631579,21.6666667 C13.2631579,23.505 14.7502895,25 16.5789474,25 C18.4076053,25 19.8947368,23.505 19.8947368,21.6666667 C19.8947368,20.7466667 20.6358158,20 21.5526316,20 C22.4694474,20 23.2105263,20.7466667 23.2105263,21.6666667 C23.2105263,25.3433333 20.2362632,28.3333333 16.5789474,28.3333333 Z" id="Shape"></path>
                    </g>
                </g>
            </g>
        </g>
    </g>
</svg>