<?xml version="1.0" encoding="UTF-8"?>
<svg width="100px" height="80px" viewBox="0 0 100 80" version="1.1" xmlns="http://www.w3.org/2000/svg" xmlns:xlink="http://www.w3.org/1999/xlink">
    <!-- Generator: Sketch 41.2 (35397) - http://www.bohemiancoding.com/sketch -->
    <title>Icon - We Develop</title>
    <desc>Created with Sketch.</desc>
    <defs>
        <rect id="path-1" x="0" y="0" width="100" height="60" rx="2"></rect>
        <mask id="mask-2" maskContentUnits="userSpaceOnUse" maskUnits="objectBoundingBox" x="0" y="0" width="100" height="60" fill="white">
            <use xlink:href="#path-1"></use>
        </mask>
    </defs>
    <g id="Symbols" stroke="none" stroke-width="1" fill="none" fill-rule="evenodd">
        <g id="Icon---We-Develop">
            <rect id="Rectangle-2" fill="#444444" x="32" y="76" width="37" height="4" rx="2"></rect>
            <g id="Brackets" transform="translate(24.000000, 13.000000)" stroke="#444444">
                <path d="M39,29.1665408 C39,28.9533909 39.0793449,28.7402409 39.2380348,28.5774814 L50.0384664,17.4999349 L39.2380348,6.42251863 C38.9206551,6.09699949 38.9206551,5.56965849 39.2380348,5.24413935 C39.5554145,4.91862022 40.0695696,4.91862022 40.3869493,5.24413935 L51.7619652,16.9107453 C52.0793449,17.2362644 52.0793449,17.7637356 51.7619652,18.0892547 L40.3869493,29.7558606 C40.0695696,30.0813798 39.5554145,30.0813798 39.2380348,29.7558606 C39.0793449,29.5929709 39,29.3796907 39,29.1665408 Z" id="Shape" stroke-width="2" fill="#444444"></path>
                <path d="M33,2 L19.8043542,33.1318717" id="Line" stroke-width="4" stroke-linecap="round" transform="translate(26.804354, 17.480032) rotate(-7.000000) translate(-26.804354, -17.480032) "></path>
                <path d="M5.32907052e-15,29.1665408 C5.32907052e-15,28.9533909 0.0793449283,28.7402409 0.238034785,28.5774814 L11.0384664,17.4999349 L0.238034785,6.42251863 C-0.0793449283,6.09699949 -0.0793449283,5.56965849 0.238034785,5.24413935 C0.555414498,4.91862022 1.06956963,4.91862022 1.38694935,5.24413935 L12.7619652,16.9107453 C13.0793449,17.2362644 13.0793449,17.7637356 12.7619652,18.0892547 L1.38694935,29.7558606 C1.06956963,30.0813798 0.555414498,30.0813798 0.238034785,29.7558606 C0.0793449283,29.5929709 5.32907052e-15,29.3796907 5.32907052e-15,29.1665408 Z" id="Shape" stroke-width="2" fill="#444444" transform="translate(6.500000, 17.500000) rotate(-180.000000) translate(-6.500000, -17.500000) "></path>
            </g>
            <g id="Base">
                <use id="Rectangle" stroke="#444444" mask="url(#mask-2)" stroke-width="8" xlink:href="#path-1"></use>
                <path d="M43.5,72.5048815 C43.5,71.397616 44.3935426,70.5 45.5027601,70.5 L54.4972399,70.5 C55.6033337,70.5 56.5,71.3938998 56.5,72.5048815 L56.5,73.4951185 C56.5,74.602384 55.6053117,75.5 54.4940313,75.5 L54.0972691,75.5 L45.4932653,75.5 C44.3924153,75.5 43.5,74.6061002 43.5,73.4951185 L43.5,72.5048815 Z" id="Rectangle-2-Copy" fill="#444444" transform="translate(50.000000, 73.000000) rotate(-90.000000) translate(-50.000000, -73.000000) "></path>
            </g>
        </g>
    </g>
</svg>