<svg xmlns="http://www.w3.org/2000/svg" width="110" height="110" viewBox="0 0 110 110"><title>Oval 1 1</title><g><path fill="#14C18F" d="M55 109.686c30.29 0 54.844-24.555 54.844-54.84C109.844 24.555 85.29 0 55 0S.156 24.555.156 54.844C.156 85.13 24.71 109.686 55 109.686z"/><path fill="#FFF" d="M82.418 89.657c0 1.24-1.02 2.245-2.285 2.245H29.867c-1.262 0-2.285-1.004-2.285-2.245V17.622c0-1.24 1.023-2.245 2.285-2.245h50.266c1.264 0 2.285 1.006 2.285 2.245v72.035z"/><path fill="#FFF" d="M28.678 17.57H81.32v73.478H28.68z"/><path fill="#14C18F" d="M33.07 24.517h43.676v54.74H33.07zM50.723 18.995h7.68v1.83h-7.68z"/><circle fill="#14C18F" cx="55" cy="85.771" r="2.948"/></g><path fill="#DD4B4C" d="M-874-746.5z"/></svg>